<svg width="108" height="104" viewBox="0 0 108 104" fill="none" xmlns="http://www.w3.org/2000/svg">
<g filter="url(#filter0_d_668_2344)">
<path d="M5.62389 3.00113C7.90109 1.25943 11.1276 0.449806 14.3123 1.40799L14.9501 1.62141L100.128 33.7616C104.408 35.3764 106.505 39.5031 105.897 43.4256C105.306 47.2377 102.272 50.4305 98.075 51.1297L55.6566 58.1981C55.4839 58.227 55.3563 58.2912 55.2828 58.3473C55.2641 58.3616 55.2525 58.3751 55.2446 58.383L40.3185 95.1461C38.5897 99.4024 34.4506 101.094 31.1435 100.996C27.8233 100.897 23.5764 98.8794 22.4108 94.1463L2.26009 12.2656C1.28909 8.31679 3.17531 4.87488 5.62389 3.00113ZM12.2151 8.4433C10.7613 7.8957 9.17817 9.10652 9.52204 10.5039L29.6722 92.3811C30.0624 93.9669 32.3887 94.1344 33.2328 92.7817L33.3816 92.4912L48.3261 55.685C49.3118 53.2579 51.6628 51.46 54.4601 50.9939L95.9963 44.0702L96.8785 43.9256C98.6697 43.6262 99.1022 41.536 97.7002 40.7285L97.3967 40.5829L12.2151 8.4433Z" fill="white"/>
<path d="M12.2151 8.4433C10.7613 7.8957 9.17817 9.10652 9.52204 10.5039L29.6722 92.3811C30.0624 93.9669 32.3887 94.1344 33.2328 92.7817L33.3816 92.4912L48.3261 55.685C49.3118 53.2579 51.6628 51.46 54.4601 50.9939L95.9963 44.0702L96.8785 43.9256C98.6697 43.6262 99.1022 41.536 97.7002 40.7285L97.3967 40.5829L12.2151 8.4433Z" fill="#040400"/>
</g>
<defs>
<filter id="filter0_d_668_2344" x="0" y="0" width="108" height="104" filterUnits="userSpaceOnUse" color-interpolation-filters="sRGB">
<feFlood flood-opacity="0" result="BackgroundImageFix"/>
<feColorMatrix in="SourceAlpha" type="matrix" values="0 0 0 0 0 0 0 0 0 0 0 0 0 0 0 0 0 0 127 0" result="hardAlpha"/>
<feOffset dy="1"/>
<feGaussianBlur stdDeviation="1"/>
<feComposite in2="hardAlpha" operator="out"/>
<feColorMatrix type="matrix" values="0 0 0 0 0 0 0 0 0 0 0 0 0 0 0 0 0 0 0.25 0"/>
<feBlend mode="normal" in2="BackgroundImageFix" result="effect1_dropShadow_668_2344"/>
<feBlend mode="normal" in="SourceGraphic" in2="effect1_dropShadow_668_2344" result="shape"/>
</filter>
</defs>
</svg>
