<svg height="670" viewBox="0 0 735.665 669.477" width="736" xmlns="http://www.w3.org/2000/svg"><path d="m503.128 287.778c102.635 23.522 184.651 101.513 215.635 158.522 50 92-19.019 218.741-143.199 78.071 0 0-55.057-52.411-71.17-72.816-40.47-50.191-77.282-181.198-1.266-163.777z" fill="#fff"/><path d="m676.078 587.656c-7.699 0-15.854-1.477-24.331-4.445-23.919-8.374-49.677-28.059-76.559-58.51-.521-.493-55.236-52.638-71.188-72.837-15.192-18.841-29.882-48.997-38.332-78.694-5.5-19.331-12.879-54.72-.493-74.53 7.283-11.65 20.094-15.467 38.063-11.349 46.723 10.708 93.365 33.807 134.887 66.799 34.777 27.635 64.329 61.157 81.076 91.972 26.307 48.405 20.367 109.005-12.97 132.331-8.809 6.164-19.002 9.265-30.154 9.265zm-185.764-300.965c-10.955 0-19.098 4.173-24.291 12.479-8.896 14.23-8.676 41.103.607 73.727 8.416 29.577 23.035 59.596 38.152 78.344 15.91 20.148 70.575 72.244 71.125 72.768 50.073 56.72 97.354 76.232 129.751 53.564 32.94-23.048 38.74-83.054 12.664-131.034-33.604-61.833-118.352-136.053-215.307-158.273-4.583-1.05-8.819-1.574-12.702-1.574z"/><path d="m231 300.283c-101.237 34.017-185.858 147.642-210.237 194.017-63.667 121.105 34.452 202.367 159.214 42.383 0 0 52.602-54.875 67.765-75.995 38.132-51.99 57.184-185.245-16.742-160.405z" fill="#fff"/><path d="m52.262 626.234c-10.418 0-19.819-2.552-27.747-7.669-30.617-19.761-32.342-70.957-4.194-124.497 25.732-48.948 111.048-160.834 210.521-194.258 18.296-6.148 32.029-3.164 40.819 8.864 22.255 30.456 5.348 112.959-23.516 152.311-15.006 20.904-67.28 75.497-67.807 76.046-30.326 38.891-61.696 66.56-90.686 79.978-13.279 6.146-25.948 9.227-37.391 9.227zm178.738-325.951.159.474c-99.185 33.327-184.282 144.943-209.954 193.776-27.896 53.063-26.312 103.722 3.852 123.191 7.211 4.654 16.375 7.41 27.189 7.411 31.104.001 75.89-22.789 127.336-88.759.56-.587 52.785-55.129 67.753-75.979 28.682-39.104 45.555-120.977 23.518-151.134-8.503-11.636-21.857-14.499-39.693-8.505l-.159-.474z"/><path d="m382.792 277.697c-62.265 2.091-113.193 5.899-167.621 29.703-30.565 13.367-7.647 192.836 15.826 297.12 8.924 39.646 294.221 30.977 303.163-11.106 22.686-106.761 16.724-277.813-18.986-298.898-12.217-7.214-46.735-19.695-132.381-16.819z" fill="#fff"/><path d="m215.17 306.8c-.198 0-.386-.118-.464-.313-.104-.256.021-.548.277-.651 58.123-23.408 102.165-26.435 167.792-28.639 60.393-2.029 94.369 3.231 112.233 8.001.267.071.426.345.354.612-.07.266-.345.427-.612.354-17.799-4.752-51.663-9.992-111.942-7.968-65.518 2.2-109.481 5.221-167.452 28.567-.061.024-.124.036-.187.036z"/><path d="m356.612 630.559c-56.448 0-121.783-6.732-126.104-25.93-11.554-51.329-21.862-115.873-26.904-168.443-.026-.275.176-.519.45-.545.279-.026.519.175.546.45 5.037 52.532 15.339 117.028 26.885 168.319 3.538 15.721 54.286 25.584 129.37 25.137 41.363-.248 83.188-3.827 114.747-9.818 35.248-6.692 55.87-16.074 58.068-26.418 9.592-45.143 14.517-105.521 13.174-161.512-.007-.276.212-.505.488-.512.271.01.506.212.512.488 1.345 56.064-3.588 116.529-13.195 161.744-4.974 23.404-93.252 36.546-173.788 37.029-1.407.009-2.828.013-4.248.013z"/><path d="m240.855 401.032s38.599 8.668 73.108-.447c0 0 .29 54.082-2.4 59.256s-23.798 20.485-31.783 20.972-31.977-15.083-35.336-20.889-3.589-58.891-3.589-58.891z" fill="#fff"/><path d="m279.397 481.323c-8.741 0-32.021-15.334-35.386-21.15-3.388-5.854-3.646-56.966-3.656-59.139 0-.152.068-.296.187-.392.118-.096.274-.133.423-.098.385.086 38.879 8.536 72.871-.443.147-.04.31-.008.432.086.123.094.195.24.196.395.012 2.213.26 54.266-2.457 59.489-2.79 5.365-23.894 20.734-32.196 21.24-.134.008-.271.012-.413.012zm-38.039-79.673c.04 5.96.455 52.73 3.518 58.022 3.249 5.617 26.912 21.127 34.873 20.641 7.846-.479 28.722-15.611 31.37-20.704 2.059-3.959 2.436-39.537 2.347-58.378-31.71 8.167-67.047 1.458-72.107.418z"/><path d="m360.763 332.3c-9.453 76.814-42.083 154.993-43 166-1 12 6 32 16 61 10.613 30.779 14.393 51.465 21.344 52.758 10.916 2.031 58.779-67.097 58.964-112.019.169-41.109-29.308-164.739-29.308-164.739z" fill="#426fa5"/><path d="m355.594 612.601c-.201 0-.394-.017-.578-.051-5.252-.978-8.56-11.639-14.041-29.302-2.174-7.009-4.64-14.953-7.685-23.785l-.581-1.684c-9.896-28.693-16.434-47.649-15.444-59.521.272-3.276 3.181-12.025 7.583-25.268 10.747-32.329 28.734-86.437 35.419-140.752.016-.132.084-.252.188-.333.104-.082.233-.117.37-.102l24 3c.206.026.376.177.424.38.295 1.237 29.489 124.159 29.321 164.857-.156 38.135-34.596 94.417-52.461 109.203-2.696 2.231-4.883 3.357-6.516 3.357zm5.603-279.743c-6.744 54.247-24.675 108.183-35.4 140.448-4.223 12.701-7.272 21.878-7.536 25.035-.972 11.661 5.893 31.564 15.394 59.112l.581 1.684c3.051 8.847 5.518 16.798 7.694 23.814 5.185 16.709 8.61 27.749 13.27 28.615.946.178 2.801-.219 6.272-3.093 17.742-14.684 51.943-70.572 52.099-108.437.163-39.53-27.509-157.084-29.214-164.284l-23.159-2.895z"/><path d="m344.182 311.833s5.089 20.669 14.755 33.553c3.999 5.331 24.611 6.67 28.292.496 8.602-14.425 11.992-40.852 11.103-48.109-1.269-10.363-53.59-1.063-54.151 14.059z" fill="#426fa5"/><path d="m374.699 350.474c-6.467 0-13.82-1.666-16.162-4.787-9.615-12.818-14.789-33.527-14.84-33.734-.012-.045-.016-.092-.015-.138.39-10.492 24.327-18.192 40.635-18.884 8.934-.378 14.089 1.32 14.512 4.783.896 7.312-2.489 33.867-11.17 48.425-1.981 3.324-7.792 4.112-11.078 4.287-.614.033-1.244.049-1.882.049zm-30.013-38.693c.334 1.318 5.435 21.019 14.652 33.305 2.089 2.785 9.794 4.734 17.19 4.34 5.254-.279 8.998-1.664 10.271-3.8 8.574-14.379 11.92-40.581 11.037-47.792-.342-2.789-5.393-4.252-13.477-3.905-15.52.658-39.202 8.108-39.675 17.852z"/><path d="m365.763 297.3c-35 44-87.94 50.4-103 35-12.77-13.05 4-36 13.74-44.63 10.56-2.17 21.2-3.83 32.04-5.13 12.31-.09 26.91.67 39.86 3.59z" fill="#fff"/><path d="m286.744 340.369c-10.724 0-19.479-2.75-24.339-7.719-3.326-3.399-4.922-7.681-4.742-12.725.438-12.296 11.309-26.25 18.508-32.629.066-.058.146-.098.231-.116 10.134-2.083 20.628-3.763 32.081-5.137 15.489-.107 28.93 1.096 40.029 3.599.057.013.111.036.16.067l17.36 11.17c.119.076.2.2.223.339.023.14-.014.282-.102.393-23.709 29.805-54.836 41.585-76.061 42.671-1.136.058-2.254.086-3.35.086zm-10.009-52.236c-7.071 6.304-17.648 19.902-18.073 31.828-.169 4.76 1.33 8.793 4.458 11.99 5.155 5.272 14.967 7.942 26.923 7.333 20.904-1.07 51.526-12.636 74.983-41.863l-16.82-10.822c-11.01-2.473-24.38-3.674-39.659-3.559-11.32 1.361-21.746 3.028-31.812 5.093z"/><path d="m378.763 297.3-.65-19.44c1.55-.05 3.11-.11 4.68-.16 33.25-1.12 58.8-.07 78.32 2.06 38.31 50.62-18.54 64.4-82.35 17.54z" fill="#fff"/><path d="m449.058 326.488c-17.836 0-43.438-8.845-70.591-28.785-.124-.09-.198-.233-.204-.386l-.65-19.44c-.004-.132.044-.261.135-.358s.217-.154.349-.158l4.682-.16c30.159-1.017 56.534-.323 78.39 2.062.137.015.261.085.344.195 13.192 17.431 16.082 32.171 7.929 40.443-4.23 4.292-11.3 6.587-20.382 6.587zm-69.804-29.447c40.467 29.646 77.255 34.556 89.474 22.159 7.741-7.854 4.866-22.049-7.884-38.966-21.768-2.36-48.021-3.044-78.034-2.034l-4.181.143z"/><path d="m381.367 509.265c-21.188 15.627-12.604 139.034 13.912 146.987 12.955 1.476 56.088-36.082 56.088-36.082l-24.406-108.196s-37.876-12.58-45.593-2.709z" fill="#fff"/><path d="m396.041 656.794c-.284 0-.557-.014-.819-.044-9.442-2.824-17.552-20.225-22.337-47.76-6.845-39.395-5.184-90.133 8.131-100.085 7.938-9.938 44.545 2.08 46.102 2.596.167.055.292.194.33.365l24.406 108.196c.041.179-.021.366-.159.487-1.732 1.509-41.787 36.244-55.653 36.246zm-2.561-150.821c-5.263 0-9.651.956-11.72 3.601-.027.036-.061.067-.097.094-12.694 9.362-14.585 60.068-7.794 99.15 4.718 27.148 12.572 44.263 21.552 46.956.234.027.48.04.735.04 12.84.002 51.34-32.964 54.655-35.825l-24.277-107.626c-2.403-.774-20.297-6.389-33.055-6.389zm-12.113 3.292h.01z"/><path d="m338.387 538.762s-30.718-48.228-48.837-45.111c-15.922 2.739-16.858 27.961 4.48 51.234 18.384 20.051 44.357-6.124 44.357-6.124z" fill="#eab18b"/><path d="m310.33 552.946c-.151 0-.3-.001-.452-.004-6.177-.122-11.633-2.719-16.216-7.718-13.157-14.35-19.139-30.997-15.24-42.412 1.814-5.312 5.736-8.74 11.043-9.653 18.257-3.142 48.082 43.354 49.344 45.335.125.197.098.455-.067.621-.139.14-13.896 13.832-28.411 13.832zm-19.029-58.941c-.568 0-1.122.045-1.666.139-5.001.861-8.551 3.97-10.267 8.991-3.099 9.073.347 25.397 15.03 41.413 4.392 4.789 9.604 7.277 15.496 7.394.146.003.293.004.438.004 12.954 0 25.381-11.32 27.411-13.257-2.71-4.169-29.498-44.684-46.443-44.684z"/><path d="m415.763 530.3c-19.062-2.373-74.747-2.542-103.705-.01-46.779 4.091-2.414 86.885 7.196 97.684 0 0 34.027 39.126 82.51 15.325 55-27 54.795-107.921 14-113z" fill="#eab18b"/><path d="m370.471 651.435c-11.377 0-21.039-3.001-28.355-6.419-14.495-6.773-23.154-16.614-23.239-16.713-6.782-7.621-36.345-60.301-26.33-85.509 3.086-7.767 9.636-12.141 19.468-13.001 27.903-2.44 84.174-2.434 103.811.012 14.835 1.847 25.547 14.01 28.655 32.535 4.665 27.798-8.435 64.688-42.496 81.41-11.441 5.617-22.068 7.686-31.513 7.686zm-3.545-122.471c-19.948 0-40.915.608-54.824 1.824-9.425.824-15.691 4.987-18.626 12.375-9.867 24.833 19.432 76.929 26.15 84.479.089.102 8.633 9.804 22.948 16.484 13.184 6.152 34.117 10.925 58.968-1.274 33.623-16.506 46.555-52.913 41.951-80.347-3.03-18.065-13.421-29.919-27.792-31.708-9.807-1.221-28.779-1.832-48.775-1.832z"/><path d="m370.471 651.435c-11.377 0-21.039-3.001-28.355-6.419-14.495-6.773-23.154-16.614-23.239-16.713-.182-.208-.159-.524.049-.705.209-.182.524-.16.705.049.085.097 8.629 9.8 22.944 16.479 13.184 6.152 34.117 10.925 58.968-1.274 33.623-16.506 46.555-52.914 41.951-80.347-3.03-18.065-13.421-29.919-27.792-31.708-19.59-2.439-75.748-2.443-103.6-.008l-6.657.646c-.244.028-.519-.174-.546-.449-.026-.275.175-.52.45-.546l6.661-.646c27.905-2.44 84.178-2.435 103.814.011 14.835 1.847 25.547 14.01 28.655 32.535 4.665 27.798-8.435 64.688-42.496 81.41-11.441 5.617-22.068 7.686-31.513 7.686z"/><path d="m312.057 530.29c-46.779 4.091-121.264 20.477-120.775 46.026.378 19.719 33.523 24.004 60.851 13.084 13.51-5.226 31.51-11.226 69.51-17.226 29-7 19.373-44.417-9.586-41.885z" fill="#eab18b"/><path d="m222.326 595.754c-9.424 0-17.858-1.901-23.6-5.709-5.09-3.377-7.837-8.12-7.944-13.718-.5-26.134 74.095-42.412 121.231-46.534l7.797-.58c.262-.016.516.186.536.461.021.275-.187.515-.462.536l-7.79.579c-50.231 4.393-120.774 21.419-120.312 45.518.102 5.33 2.624 9.671 7.497 12.904 11.32 7.511 33.472 7.396 52.668-.274 12.359-4.781 27.818-9.923 57.034-15.144.269-.051.532.132.58.404.049.272-.133.532-.404.58-29.133 5.205-44.537 10.329-56.844 15.09-9.815 3.922-20.411 5.886-29.987 5.886z"/><path d="m304.643 561.175c-20.831 7.489-38 17-52.51 28.226-28.909 23.627-25.598 61.496 2.837 58.112 24.673-11.338 13.673-28.338 73.673-55.338 17-10 4.852-41.372-24-31z" fill="#eab18b"/><path d="m251.559 648.22c-8.514 0-15.022-4.021-18.136-11.346-5.145-12.108-.479-32.436 18.394-47.86 6.851-5.301 14.263-10.18 22.04-14.511.24-.132.546-.049.68.194.135.241.048.545-.193.68-7.733 4.306-15.103 9.158-21.904 14.42-18.284 14.943-22.972 35.209-18.095 46.687 3.327 7.83 10.782 11.67 20.489 10.542 9.446-4.357 13.503-9.451 18.636-15.896 7.456-9.361 16.734-21.011 47.319-35.839.249-.121.548-.017.668.231.12.249.017.548-.232.668-30.38 14.73-39.58 26.281-46.973 35.563-5.021 6.306-9.359 11.751-19.072 16.214-.048.022-.098.036-.149.042-1.189.142-2.348.211-3.471.211z"/><path d="m312.643 591.175c-32 15-56 35-57.673 56.338-.925 9.957 6.456 23.36 18.916 21.241 18.937-3.221 16.992-31.564 45.366-40.779 26.39-9.8 16.39-43.8-6.61-36.8z" fill="#eab18b"/><path d="m271.295 669.477c-3.734 0-7.183-1.387-10.092-4.083-4.624-4.286-7.329-11.491-6.731-17.928 1.706-21.749 25.332-39.23 44.853-50.063.237-.134.545-.048.68.194.134.242.047.546-.195.68-27.289 15.146-43.036 32.645-44.341 49.274-.57 6.15 2.008 13.023 6.415 17.109 3.357 3.111 7.486 4.357 11.92 3.6 8.561-1.456 12.769-8.218 17.64-16.047 5.75-9.242 12.268-19.716 27.656-24.714l9.252-3.414c.257-.095.547.037.642.296.096.259-.036.546-.296.642l-9.271 3.42c-15.06 4.892-21.475 15.201-27.134 24.297-5 8.035-9.317 14.974-18.321 16.505-.905.154-1.799.23-2.676.23z"/><path d="m707.296 578.592c-59.533 56.708-239.533 63.708-239.533 63.708l-16-137s114-13 172-42c90-45 144.5 55.5 83.533 115.292z" fill="#fff"/><path d="m467.763 642.8c-.253 0-.467-.189-.497-.442l-16-137c-.015-.132.022-.265.105-.369.082-.104.203-.171.335-.186 1.139-.13 114.576-13.322 171.833-41.951.246-.123.547-.024.671.224.123.247.023.547-.224.671-55.467 27.733-163.38 41.005-171.669 41.991l15.888 136.042c4.905-.217 47.927-2.305 96.927-10.564 47.774-8.053 111.159-23.782 141.819-52.986 13.543-12.902 21.94-28.145 25.671-46.6.055-.271.326-.446.589-.391.271.055.446.319.392.589-3.772 18.663-12.265 34.078-25.962 47.125-30.845 29.381-94.438 45.175-142.354 53.25-51.873 8.743-97.055 10.578-97.505 10.595-.007 0-.014 0-.02 0z"/><path d="m381.367 509.265c7.421-3.207 18.93 5.27 26.396 47.034 6.661 37.264 9 93-12.484 99.953 14.484 4.047 63.484 3.047 77.484-14.953 18.254-23.469 2-122-17-137-14.409-11.375-68.118-3.195-74.396 4.966z" fill="#fff"/><path d="m415.447 658.671c-8.703 0-16.107-.765-20.304-1.938-.212-.059-.36-.251-.365-.471-.004-.221.136-.418.346-.486 19.429-6.287 19.915-55.928 12.146-99.389-6.174-34.536-14.711-43.784-19.25-46.223-2.209-1.188-4.381-1.336-6.455-.441-.209.091-.454.027-.593-.152-.14-.18-.141-.432-.002-.612 3.383-4.397 18.133-8.007 31.249-9.634 15.899-1.971 35.767-1.803 43.853 4.581 19.655 15.517 35.295 114.286 17.085 137.7-10.028 12.894-37.397 17.064-57.71 17.064zm-18.506-2.522c15.587 3.427 61.829 2.325 75.427-15.156 9.633-12.385 9.09-44.951 5.37-71.299-4.436-31.415-13.6-58.145-22.285-65.001-7.846-6.194-27.415-6.32-43.109-4.373-13.354 1.656-24.647 4.773-29.1 7.905 1.723-.234 3.504.121 5.25 1.06 5.738 3.083 13.826 13.728 19.761 46.928 5.912 33.075 9.97 90.432-11.313 99.937z"/><ellipse cx="454.137" cy="627.95" fill="#3a3838" rx="9.324" ry="8.088" transform="matrix(.91793475 -.39673139 .39673139 .91793475 -211.857 231.701)"/><path d="m453.211 636.744c-3.537 0-6.753-1.798-8.092-4.896-.916-2.118-.828-4.515.246-6.748 1.062-2.209 2.968-3.997 5.365-5.033 2.396-1.036 5.002-1.199 7.342-.459 2.362.748 4.168 2.327 5.083 4.445.916 2.118.828 4.515-.246 6.748-1.062 2.209-2.968 3.997-5.364 5.033-1.429.618-2.908.91-4.334.91zm1.864-16.593c-1.32 0-2.666.28-3.948.834-2.176.94-3.902 2.556-4.86 4.548-.947 1.969-1.028 4.07-.229 5.918 1.659 3.839 6.643 5.394 11.111 3.464 2.176-.94 3.901-2.556 4.859-4.548.947-1.969 1.028-4.07.229-5.918s-2.385-3.229-4.467-3.888c-.866-.274-1.775-.411-2.695-.411z"/><path d="m275.924 440.86c26.168 2.891 75.766 122.281 65.292 134.363-10.467 7.775-66.708 2.749-66.708 2.749l-33.157-105.843s22.946-35.937 34.573-31.268z" fill="#fff"/><path d="m309.789 580.088c-16.873 0-34.051-1.505-35.326-1.619-.201-.018-.372-.156-.433-.349l-33.157-105.843c-.044-.141-.023-.294.056-.418.945-1.479 23.227-36.104 35.117-31.488 15.289 1.801 38.987 42.831 54.521 82.492 8.529 21.781 15.906 47.06 11.027 52.688-.023.027-.051.052-.08.074-4.688 3.483-18.108 4.463-31.725 4.464zm-34.904-2.586c4.654.396 56.094 4.573 65.988-2.647 3.658-4.381-.849-25.098-11.238-51.627-15.445-39.438-38.873-80.225-53.766-81.87-.045-.005-.09-.016-.132-.033-10.694-4.291-31.999 28.045-33.84 30.878l32.987 105.299zm66.331-2.28h.01z"/><path d="m426.763 409.3c-28.72 0-52 23.28-52 52s23.28 52 52 52 52-23.28 52-52-23.28-52-52-52zm0 78c-14.36 0-26-11.64-26-26s11.64-26 26-26 26 11.64 26 26-11.64 26-26 26z" fill="#fff"/><path d="m426.763 513.8c-28.948 0-52.5-23.551-52.5-52.5s23.552-52.5 52.5-52.5 52.5 23.551 52.5 52.5-23.552 52.5-52.5 52.5zm0-104c-28.397 0-51.5 23.103-51.5 51.5s23.103 51.5 51.5 51.5 51.5-23.103 51.5-51.5-23.103-51.5-51.5-51.5zm0 78c-14.612 0-26.5-11.888-26.5-26.5s11.888-26.5 26.5-26.5 26.5 11.888 26.5 26.5-11.888 26.5-26.5 26.5zm0-52c-14.061 0-25.5 11.439-25.5 25.5s11.439 25.5 25.5 25.5 25.5-11.439 25.5-25.5-11.439-25.5-25.5-25.5z"/><path d="m429.763 385.3v159c0 4.971 28.43 9 63.5 9s63.5-4.029 63.5-9v-159z" fill="#fff"/><path d="m493.263 553.8c-31.025 0-64-3.33-64-9.5v-159c0-.276.224-.5.5-.5h127c.276 0 .5.224.5.5v159c0 6.17-32.975 9.5-64 9.5zm-63-168v158.5c0 4.021 25.873 8.5 63 8.5s63-4.479 63-8.5v-158.5z"/><ellipse cx="493.263" cy="385.3" fill="#fff" rx="63.5" ry="9"/><path d="m493.263 394.8c-31.025 0-64-3.33-64-9.5s32.975-9.5 64-9.5 64 3.33 64 9.5-32.975 9.5-64 9.5zm0-18c-37.127 0-63 4.479-63 8.5s25.873 8.5 63 8.5 63-4.479 63-8.5-25.873-8.5-63-8.5z"/><path d="m463.471 429.387c-.462-.048-.891.258-1.002.71-1.274 5.214-1.972 8.067-3.296 13.508-.19.68-.3 1.27-.33 1.77-.02 0-.03-.01-.04-.01-.07-.72-.17-1.32-.28-1.79-1.377-5.756-2.105-8.787-3.407-14.286-.11-.463-.492-.818-.963-.886-.582-.084-1.134.281-1.285.849-1.31 4.93-2.056 7.737-3.445 12.983-.21.78-.33 1.39-.36 1.84-.03-.01-.04-.01-.07-.01-.03-.62-.12-1.27-.28-1.94-1.401-5.866-2.121-8.902-3.476-14.595-.086-.362-.385-.647-.752-.71-.006-.001-.013-.002-.019-.003-.662-.114-1.219.493-1.056 1.145 1.635 6.549 2.595 10.407 4.231 16.924.152.605.661 1.06 1.281 1.136.751.093 1.457-.389 1.649-1.122 1.122-4.287 1.814-6.945 3.064-11.725.16-.59.26-1.21.3-1.85h.05c.03.68.12 1.33.27 1.96 1.263 5.211 1.957 8.059 3.122 12.81.149.607.657 1.063 1.277 1.142l.081.01c.754.096 1.464-.386 1.654-1.123 1.523-5.876 2.45-9.466 4.031-15.561.143-.551-.237-1.103-.803-1.161-.048-.005-.096-.01-.145-.015z"/><path d="m458.925 447.758c-.085 0-.17-.005-.255-.016-.901-.115-1.584-.726-1.78-1.529-1.117-4.552-1.801-7.357-2.967-12.169l-2.87 10.982c-.255.975-1.217 1.611-2.194 1.492-.817-.101-1.502-.708-1.704-1.51-1.342-5.353-2.23-8.912-3.41-13.64l-.82-3.285c-.118-.472.009-.967.34-1.324.329-.355.812-.519 1.287-.435.585.101 1.038.527 1.173 1.089l.896 3.765c.819 3.448 1.473 6.192 2.47 10.366 1.288-4.867 2.025-7.643 3.277-12.352.233-.883 1.029-1.408 1.858-1.285.668.096 1.222.604 1.378 1.265 1.042 4.402 1.717 7.223 2.65 11.126l.6 2.507c1.075-4.416 1.741-7.14 2.724-11.159l.408-1.669c.169-.693.82-1.158 1.537-1.088l.145.015c.415.043.789.264 1.026.607.238.344.314.773.209 1.178l-4.029 15.56c-.233.896-1.045 1.509-1.947 1.509zm-5.462-16.933h.948l.07.478c.029.652.113 1.263.258 1.866 1.262 5.209 1.956 8.057 3.121 12.807.1.405.442.712.854.765.577.075 1.061-.249 1.188-.742l4.03-15.56c.044-.168-.021-.295-.062-.356-.042-.061-.138-.165-.308-.182l-.145-.015c-.217-.033-.413.119-.463.33l-.408 1.67c-1.031 4.216-1.713 7.007-2.89 11.838-.183.657-.288 1.217-.316 1.682l-.028.47-.964-.01-.045-.451c-.062-.646-.156-1.242-.269-1.725l-.756-3.158c-.934-3.904-1.608-6.725-2.65-11.128-.062-.265-.283-.468-.548-.506-.34-.052-.646.159-.73.482-1.317 4.957-2.063 7.762-3.445 12.983-.201.748-.317 1.334-.345 1.746l-.044.645-.613-.205h-.477l.066-.459c-.03-.609-.12-1.231-.268-1.849-1.061-4.438-1.73-7.256-2.58-10.831l-.896-3.764c-.041-.17-.182-.304-.351-.333-.225-.04-.356.076-.403.126-.048.052-.154.195-.103.401l.819 3.286c1.181 4.728 2.068 8.286 3.411 13.638.102.404.446.711.856.762.515.063.977-.262 1.104-.752l3.063-11.725c.15-.557.246-1.146.284-1.755l.029-.469z"/><path d="m466.113 439.325c0-3.036.733-5.39 2.2-7.081s3.451-2.44 5.953-2.281c2.321.148 4.191 1.127 5.61 2.964s2.129 4.147 2.129 6.947c0 3.019-.717 5.421-2.151 7.188-1.433 1.768-3.391 2.588-5.871 2.427-2.371-.153-4.275-1.196-5.713-3.1s-2.156-4.264-2.156-7.063zm1.945-.023c0 2.27.536 4.196 1.609 5.767 1.072 1.571 2.507 2.422 4.306 2.539 1.921.124 3.418-.499 4.489-1.85 1.07-1.351 1.606-3.235 1.606-5.644 0-2.491-.517-4.457-1.551-5.907s-2.498-2.226-4.391-2.348c-1.842-.118-3.313.517-4.415 1.922-1.101 1.406-1.652 3.243-1.652 5.522z"/><path d="m474.582 450.008c-.207 0-.417-.007-.631-.021-2.504-.162-4.55-1.271-6.081-3.298-1.497-1.983-2.257-4.461-2.257-7.364 0-3.139.781-5.632 2.322-7.409 1.559-1.796 3.688-2.624 6.363-2.452 2.467.157 4.478 1.22 5.974 3.157 1.482 1.92 2.233 4.359 2.233 7.252 0 3.129-.763 5.653-2.263 7.503-1.418 1.748-3.32 2.632-5.661 2.632zm-.969-19.566c-2.067 0-3.682.7-4.922 2.129-1.379 1.59-2.078 3.862-2.078 6.754 0 2.681.691 4.956 2.056 6.762 1.347 1.784 3.146 2.761 5.347 2.903 2.322.15 4.104-.584 5.45-2.243 1.353-1.667 2.039-3.98 2.04-6.874 0-2.666-.682-4.9-2.024-6.641-1.332-1.724-3.048-2.63-5.247-2.771-.211-.014-.419-.02-.621-.02zm.832 17.681c-.166 0-.334-.005-.505-.017-1.948-.126-3.525-1.054-4.688-2.756-1.125-1.648-1.695-3.683-1.695-6.048 0-2.379.592-4.341 1.759-5.831 1.2-1.531 2.82-2.236 4.841-2.113 2.046.131 3.649.992 4.766 2.556 1.091 1.53 1.644 3.615 1.644 6.197 0 2.516-.576 4.52-1.714 5.955-1.081 1.365-2.562 2.056-4.407 2.056zm-.75-15.779c-1.496 0-2.674.573-3.592 1.745-1.025 1.309-1.546 3.063-1.546 5.213s.512 4.006 1.521 5.485c.993 1.455 2.277 2.214 3.926 2.321 1.749.112 3.088-.429 4.064-1.662.993-1.254 1.497-3.049 1.497-5.334 0-2.37-.49-4.26-1.458-5.616-.946-1.327-2.26-2.026-4.016-2.139-.135-.009-.268-.013-.397-.013z"/><path d="m495.772 449.754c-.04 0-.08 0-.121.001-.342.003-.664-.188-.825-.489-.964-1.803-1.527-2.859-2.569-4.817-.603-1.14-1.151-1.889-1.645-2.246s-1.072-.54-1.732-.548c-.667-.009-1-.014-1.667-.026v7.157c0 .515-.423.929-.938.917-.006 0-.011 0-.017 0-.499-.011-.897-.425-.897-.924 0-6.477 0-10.195 0-16.504 0-.82.678-1.485 1.498-1.468 1.133.024 2.047.035 3.47.046 1.547.012 2.778.455 3.693 1.342s1.373 2.112 1.373 3.683c0 2.612-1.245 4.329-3.737 5.103v.048c.465.23.848.527 1.15.893.301.366.753 1.089 1.356 2.168.982 1.765 1.582 2.84 2.395 4.295.34.608-.09 1.361-.787 1.368zm-8.56-17.013v6.958c1.103.021 1.654.028 2.756.038 1.024.009 1.859-.324 2.506-.995.646-.671.97-1.566.97-2.681 0-1.026-.294-1.826-.883-2.404-.588-.578-1.445-.868-2.571-.878-1.111-.01-1.667-.018-2.778-.038z"/><path d="m495.643 450.255c-.521 0-1.013-.294-1.258-.753-.966-1.804-1.528-2.86-2.57-4.818-.702-1.329-1.201-1.862-1.496-2.076-.412-.298-.885-.447-1.445-.454l-1.161-.019v6.65c0 .384-.151.744-.426 1.013s-.66.404-1.023.404c-.781-.018-1.403-.656-1.403-1.424v-16.504c0-.533.211-1.032.593-1.406.381-.374.845-.564 1.416-.562 1.132.024 2.044.036 3.464.046 1.678.013 3.036.512 4.037 1.483 1.013.98 1.525 2.34 1.525 4.042 0 2.484-1.098 4.278-3.188 5.238.179.149.341.312.486.488.322.393.783 1.126 1.407 2.243.982 1.766 1.581 2.841 2.396 4.295.247.443.243.969-.011 1.408-.253.436-.704.699-1.207.705h-.121s-.009.001-.014.001zm-8.931-9.137 2.174.036c.763.01 1.441.226 2.019.643.562.407 1.149 1.198 1.794 2.418 1.041 1.956 1.604 3.012 2.567 4.815.074.137.221.225.376.225h.125c.212-.004.317-.146.353-.208s.109-.229.003-.418c-.814-1.456-1.413-2.53-2.396-4.296-.587-1.048-1.026-1.753-1.307-2.094-.254-.308-.586-.565-.984-.762l-.278-.138v-.679l.352-.158c2.278-.708 3.386-2.221 3.386-4.625 0-1.44-.399-2.527-1.221-3.324-.822-.796-1.918-1.189-3.35-1.201-1.426-.011-2.342-.022-3.478-.046-.264-.013-.506.093-.694.276-.188.185-.292.43-.292.691v16.504c0 .229.183.419.408.424.097-.012.236-.04.318-.119.08-.079.125-.185.125-.298v-7.667zm3.298-.881h-.046c-1.104-.01-1.657-.018-2.762-.038l-.49-.009v-7.958l.509.009c1.109.021 1.664.028 2.773.038 1.258.011 2.239.355 2.918 1.021.685.674 1.032 1.603 1.032 2.761 0 1.243-.373 2.262-1.109 3.027-.736.762-1.686 1.148-2.825 1.148zm-2.298-1.029c.801.014 1.337.021 2.262.029h.037c.868 0 1.558-.275 2.104-.842.558-.581.829-1.344.829-2.333 0-.892-.24-1.562-.733-2.047-.494-.485-1.223-.726-2.226-.735-.93-.008-1.472-.015-2.273-.029v5.958z"/><path d="m507.484 449.386c-2.394.128-3.982.194-6.232.257-.857.024-1.565-.671-1.565-1.528 0-6.269 0-9.984 0-16.439 0-.497.396-.91.893-.924h.017c.516-.014.942.407.942.924v16.053c2.384-.074 3.725-.128 5.845-.241.525-.028.971.39.971.916v.067c0 .488-.383.89-.871.916z"/><path d="m501.208 450.143c-.527 0-1.024-.202-1.405-.573-.397-.386-.616-.903-.616-1.456v-16.439c0-.764.618-1.402 1.379-1.423.406-.005.764.131 1.04.4.274.268.433.641.433 1.023v15.537c2.067-.066 3.36-.12 5.318-.224.397-.015.773.122 1.057.39.284.271.441.634.441 1.025 0 .821-.59 1.443-1.344 1.483-2.424.129-4 .194-6.245.257-.019 0-.038 0-.058 0zm-.586-18.892s-.008 0-.012 0c-.241.006-.424.196-.424.424v16.439c0 .28.111.542.312.739.201.195.467.302.739.29 2.235-.062 3.805-.127 6.22-.256.223-.012.396-.195.396-.417 0-.181-.046-.288-.13-.367-.086-.081-.191-.125-.315-.116-2.123.112-3.468.167-5.854.241l-.516.016v-16.568c0-.116-.047-.225-.131-.307-.078-.076-.18-.118-.286-.118z"/><path d="m510.955 447.266c0-5.779 0-9.407 0-15.224 0-.988.766-1.815 1.752-1.883.88-.061 1.668-.121 2.816-.213 5.92-.473 8.871 2.225 8.871 8.369 0 2.946-.795 5.39-2.386 7.311-1.592 1.922-3.81 3.017-6.658 3.243-1.004.08-1.722.134-2.48.188-1.034.073-1.913-.755-1.913-1.791zm1.849-15.211v15.1c1.026-.072 1.54-.111 2.566-.192 2.239-.178 3.98-1.016 5.225-2.489s1.867-3.44 1.867-5.889c0-4.915-2.324-7.102-6.983-6.73-1.069.085-1.604.125-2.674.201z"/><path d="m512.745 449.562c-.574 0-1.135-.22-1.559-.615-.465-.434-.731-1.046-.731-1.681v-15.224c0-1.25.973-2.296 2.217-2.382.879-.061 1.664-.121 2.81-.212 3.079-.246 5.439.362 7.007 1.808 1.596 1.473 2.404 3.848 2.404 7.06 0 3.06-.842 5.627-2.502 7.63-1.687 2.036-4.043 3.188-7.003 3.423-1.006.08-1.726.134-2.485.188-.053.004-.104.006-.157.006zm4.029-19.167c-.389 0-.793.017-1.213.05-1.149.092-1.938.152-2.821.213-.721.05-1.286.658-1.286 1.384v15.224c0 .363.147.701.414.949.265.246.61.372.964.343.758-.053 1.474-.107 2.477-.187 2.681-.213 4.805-1.244 6.312-3.063s2.271-4.172 2.271-6.992c0-2.921-.701-5.049-2.083-6.325-1.149-1.061-2.84-1.596-5.035-1.596zm-4.47 17.297v-16.104l.465-.032c1.068-.075 1.602-.116 2.67-.201 2.435-.193 4.301.296 5.559 1.458 1.304 1.204 1.965 3.146 1.965 5.771 0 2.564-.668 4.654-1.985 6.212-1.336 1.581-3.209 2.478-5.566 2.665-1.028.082-1.543.12-2.571.192l-.535.038zm1-15.171v14.098c.702-.05 1.196-.088 2.026-.154 2.082-.165 3.725-.943 4.883-2.313 1.16-1.373 1.749-3.246 1.749-5.567 0-2.335-.553-4.029-1.643-5.036-1.045-.964-2.662-1.371-4.801-1.195-.906.072-1.429.112-2.215.168z"/><path d="m529.724 428.139c-.52 1.978-.829 3.152-1.27 4.826-.201.762-.846 1.327-1.628 1.42-.005 0-.01.001-.016.002.416-1.93.665-3.09 1.014-4.711.171-.795.819-1.396 1.626-1.501.086-.011.176-.023.275-.036z"/><path d="m526.188 434.964.132-.684 1.016-4.711c.214-1 1.038-1.76 2.049-1.891l1.013-.135-1.46 5.548c-.256.968-1.062 1.67-2.053 1.79l-.696.083zm2.837-6.136c-.356.194-.623.538-.712.952l-.818 3.8c.227-.186.396-.443.476-.743l1.055-4.009z"/><path d="m532.04 445.56c0-.742.721-1.244 1.429-1.021.188.059.387.112.598.158.883.193 1.699.231 2.448.115 2.433-.376 3.647-1.588 3.647-3.59 0-.562-.126-1.041-.378-1.438-.251-.398-.591-.722-1.019-.974s-1.272-.644-2.531-1.181c-1.811-.772-2.965-1.526-3.448-2.239s-.725-1.563-.725-2.548c0-1.521.548-2.813 1.644-3.883 1.095-1.069 2.471-1.73 4.126-1.993 1.06-.169 1.923-.221 2.591-.154.549.056.958.527.958 1.079 0 .702-.651 1.188-1.339 1.045-.716-.148-1.531-.149-2.447-.004-1.058.167-1.922.553-2.592 1.161s-1.005 1.37-1.005 2.29c0 .57.117 1.047.351 1.432s.553.702.956.951 1.19.618 2.354 1.089c1.636.662 2.787 1.362 3.441 2.125s.981 1.685.981 2.766c0 1.612-.517 2.948-1.552 4.002s-2.484 1.733-4.349 2.019c-.569.087-1.309.093-2.221.014-.434-.038-.807-.095-1.117-.173-.478-.119-.802-.557-.802-1.049z"/><path d="m535.129 447.337c-.369 0-.774-.019-1.213-.057-.454-.039-.855-.102-1.194-.186-.696-.173-1.182-.804-1.182-1.535 0-.506.232-.968.639-1.265.41-.302.948-.387 1.44-.233.174.055.358.104.555.146.817.18 1.58.216 2.266.11 2.169-.335 3.224-1.348 3.224-3.096 0-.47-.099-.853-.3-1.17-.211-.333-.489-.598-.852-.812-.4-.236-1.209-.612-2.474-1.152-1.918-.818-3.117-1.609-3.666-2.419-.538-.795-.811-1.746-.811-2.828 0-1.651.604-3.078 1.795-4.241 1.16-1.133 2.64-1.849 4.396-2.129 1.117-.178 2.01-.23 2.72-.158.804.082 1.408.76 1.408 1.577 0 .472-.209.912-.572 1.208-.379.308-.873.427-1.368.326-.65-.135-1.412-.135-2.268 0-.957.152-1.742.501-2.334 1.038-.566.514-.842 1.142-.842 1.92 0 .474.094.868.278 1.171.195.32.454.577.792.786.393.242 1.202.615 2.279 1.051 1.743.705 2.932 1.445 3.634 2.262.73.854 1.101 1.895 1.101 3.092 0 1.743-.57 3.208-1.695 4.353-1.115 1.135-2.673 1.863-4.63 2.163-.326.05-.703.075-1.127.075zm-2.005-2.351c-.127 0-.25.039-.354.115-.086.063-.23.207-.23.459 0 .271.174.502.422.564.288.071.638.125 1.04.16.865.075 1.571.071 2.103-.01 1.738-.267 3.107-.897 4.068-1.875.947-.964 1.408-2.159 1.408-3.651 0-.966-.281-1.765-.86-2.441-.586-.683-1.68-1.352-3.249-1.986-1.145-.463-1.984-.853-2.43-1.127-.469-.29-.846-.666-1.12-1.117-.282-.462-.425-1.031-.425-1.691 0-1.061.394-1.956 1.17-2.66.738-.67 1.696-1.103 2.85-1.285.973-.154 1.857-.151 2.627.008.194.041.39-.004.533-.123.132-.107.204-.26.204-.433 0-.302-.219-.552-.509-.582-.615-.062-1.443-.012-2.462.15-1.549.247-2.846.872-3.854 1.857-1.006.981-1.494 2.134-1.494 3.525 0 .878.215 1.641.639 2.267.297.438 1.098 1.15 3.23 2.06 1.304.557 2.151.953 2.589 1.21.495.292.895.674 1.188 1.137.302.476.455 1.05.455 1.706 0 1.577-.706 3.564-4.071 4.084-.809.125-1.693.084-2.632-.121-.225-.049-.438-.105-.641-.169-.064-.021-.131-.03-.195-.03z"/><path d="m469.683 483.444c0-6.11 0-9.786 0-15.833 0-.888.755-1.597 1.641-1.531.975.073 1.812.13 3.068.209 1.4.089 2.528.545 3.384 1.378s1.285 1.899 1.285 3.201c0 1.058-.253 1.974-.757 2.747-.504.772-1.217 1.309-2.137 1.606l.004.051c1.122.187 2.025.704 2.71 1.557.686.855 1.029 1.935 1.029 3.246 0 1.603-.514 2.886-1.541 3.84-1.027.955-2.324 1.388-3.89 1.289-1.386-.087-2.272-.147-3.379-.231-.797-.061-1.416-.729-1.416-1.528zm1.848-15.421v6.213c.818.06 1.227.088 2.045.142 1.116.074 1.987-.174 2.611-.736.624-.563.936-1.383.936-2.457 0-1.872-1.089-2.86-3.264-3.002-.931-.061-1.396-.093-2.327-.161zm0 8.13v6.922c1.092.08 1.637.117 2.73.187 1.161.074 2.069-.187 2.726-.773.657-.587.985-1.431.985-2.53 0-2.27-1.386-3.466-4.156-3.647-.914-.06-1.37-.091-2.284-.158z"/><path d="m474.906 485.717c-.15 0-.304-.005-.459-.015-1.39-.087-2.276-.147-3.386-.232-1.054-.08-1.879-.97-1.879-2.027v-15.833c0-.564.237-1.109.652-1.494.412-.381.966-.578 1.526-.536.973.073 1.81.129 3.062.208 1.519.096 2.764.607 3.701 1.519.953.928 1.437 2.125 1.437 3.559 0 1.151-.282 2.167-.838 3.02-.332.507-.745.926-1.236 1.252.697.305 1.294.765 1.784 1.376.756.941 1.139 2.139 1.139 3.559 0 1.743-.572 3.159-1.701 4.207-1.025.954-2.303 1.437-3.802 1.437zm-3.697-19.141c-.258 0-.502.096-.694.274-.214.199-.332.469-.332.761v15.833c0 .537.419.989.955 1.03 1.105.084 1.988.144 3.372.231 1.427.092 2.584-.288 3.518-1.156.93-.863 1.382-2 1.382-3.474 0-1.203-.301-2.163-.918-2.933-.609-.758-1.396-1.209-2.403-1.377l-.392-.065-.05-.784.366-.169c.813-.263 1.426-.722 1.873-1.405.447-.687.675-1.519.675-2.473 0-1.17-.371-2.1-1.134-2.842-.772-.751-1.775-1.156-3.066-1.237-1.258-.08-2.097-.136-3.073-.209-.026-.002-.053-.003-.078-.003zm3.427 17.198c-.133 0-.269-.004-.407-.013-1.094-.069-1.641-.107-2.733-.188l-.464-.034v-7.925l.536.04c.912.066 1.368.098 2.279.158 3.822.25 4.625 2.393 4.625 4.146 0 1.243-.388 2.219-1.152 2.903-.678.607-1.58.913-2.684.913zm-2.605-1.165c.804.058 1.337.094 2.261.153 1.021.063 1.81-.152 2.361-.647.551-.493.818-1.199.818-2.158 0-1.248-.383-2.932-3.689-3.148-.718-.047-1.154-.077-1.751-.12v5.919zm1.917-7.718c-.133 0-.268-.005-.406-.014-.818-.054-1.229-.083-2.048-.143l-.463-.034v-7.216l.537.04c.929.068 1.393.1 2.322.161 3.084.201 3.731 2.014 3.731 3.5 0 1.218-.37 2.169-1.101 2.828-.647.583-1.512.878-2.573.878zm-1.917-1.12c.54.039.931.065 1.577.108.966.064 1.724-.141 2.243-.609.519-.467.771-1.15.771-2.085 0-1.605-.862-2.376-2.796-2.502-.736-.048-1.182-.078-1.795-.123z"/><path d="m491.281 485.771c-2.465-.007-4.099-.032-6.457-.1-.806-.023-1.452-.689-1.452-1.495 0-6.129 0-9.811 0-15.915 0-.841.696-1.52 1.536-1.496 2.168.062 3.71.086 5.999.096.524.002.951.428.951.952 0 .528-.435.955-.962.952-2.054-.009-3.36-.031-5.672-.09v6.433c2.114.054 3.318.075 5.181.086.523.003.952.429.952.952 0 .528-.436.955-.964.952-1.856-.011-3.059-.032-5.169-.086v6.763c2.469.063 3.852.085 6.062.092.525.002.955.427.955.952 0 .527-.432.954-.959.952z"/><path d="m491.284 486.271h-.005c-2.492-.007-4.125-.033-6.47-.101-1.068-.031-1.938-.926-1.938-1.995v-15.916c0-.543.215-1.052.606-1.432.391-.379.912-.578 1.444-.564 2.164.062 3.675.087 5.986.096.799.004 1.449.655 1.449 1.452 0 .387-.152.752-.428 1.026-.275.275-.642.426-1.029.426h-.007c-1.902-.008-3.162-.027-5.171-.077v5.433c1.819.045 2.973.064 4.685.074.799.005 1.449.657 1.449 1.452 0 .388-.152.752-.429 1.027-.276.274-.641.425-1.028.425h-.01c-1.704-.011-2.859-.029-4.667-.074v5.762c2.221.055 3.537.073 5.563.08.801.002 1.453.654 1.453 1.452 0 .387-.151.752-.427 1.026s-.641.426-1.029.426zm-.001-1c.122 0 .236-.047.323-.134.086-.085.133-.199.133-.318 0-.249-.205-.452-.456-.452-2.179-.007-3.541-.027-6.073-.092l-.487-.013v-7.763l.513.013c2.106.054 3.308.075 5.16.086.148-.005.24-.047.327-.134.086-.085.134-.199.134-.318 0-.248-.204-.451-.455-.452-1.867-.011-3.072-.032-5.191-.086l-.487-.013v-7.434l.513.013c2.31.059 3.611.081 5.662.09h.002c.123 0 .237-.048.325-.134.086-.085.133-.198.133-.318 0-.248-.203-.451-.453-.452-2.292-.009-3.865-.035-6.012-.096-.269-.004-.523.092-.719.281-.195.19-.303.444-.303.715v15.916c0 .533.434.98.967.995 2.334.068 3.961.093 6.444.101z"/><path d="m494.735 484.398c0-.764.783-1.247 1.484-.942.176.076.362.149.559.217.89.309 1.712.453 2.468.436 2.455-.057 3.682-1.11 3.682-3.112 0-.562-.127-1.058-.381-1.488-.254-.431-.597-.8-1.029-1.108s-1.284-.811-2.554-1.513c-1.827-1.01-2.989-1.914-3.476-2.691-.487-.776-.73-1.657-.73-2.642 0-1.521.552-2.741 1.656-3.667s2.491-1.406 4.161-1.453c1.217-.034 2.178.049 2.883.256.426.125.7.542.7.986v.025c0 .728-.716 1.199-1.409.975-.709-.229-1.514-.33-2.414-.306-1.068.029-1.939.301-2.615.822s-1.014 1.239-1.014 2.159c0 .57.118 1.062.354 1.478s.558.775.964 1.076 1.199.774 2.375 1.398c1.651.876 2.814 1.727 3.474 2.576s.991 1.813.991 2.895c0 1.612-.523 2.88-1.568 3.798s-2.509 1.407-4.39 1.448c-.574.013-1.32-.078-2.239-.277-.553-.119-1.007-.258-1.361-.414-.36-.159-.573-.537-.573-.931z"/><path d="m498.803 486.521c-.599 0-1.351-.097-2.239-.289-.579-.125-1.069-.275-1.457-.445-.529-.234-.871-.779-.871-1.389 0-.519.257-.997.688-1.279.442-.291 1-.338 1.496-.122.164.071.339.139.522.202.827.287 1.598.42 2.293.409 2.862-.066 3.193-1.522 3.193-2.612 0-.475-.103-.878-.312-1.233-.221-.374-.512-.686-.89-.956-.405-.289-1.248-.787-2.506-1.482-1.918-1.06-3.114-1.997-3.657-2.862-.535-.855-.807-1.833-.807-2.908 0-1.666.617-3.028 1.836-4.05 1.182-.992 2.686-1.52 4.469-1.569 1.289-.036 2.282.054 3.037.276.624.183 1.06.786 1.06 1.466 0 .518-.228.966-.623 1.255-.408.297-.943.38-1.439.22-.649-.21-1.408-.306-2.246-.282-.957.025-1.738.267-2.324.718-.551.425-.818 1.001-.818 1.763 0 .478.098.892.289 1.231.2.353.479.663.827.921.4.296 1.222.778 2.312 1.357 1.749.929 2.938 1.815 3.635 2.711.728.936 1.097 2.013 1.097 3.202 0 1.757-.585 3.162-1.738 4.174-1.139 1-2.723 1.529-4.709 1.572-.038 0-.076 0-.116 0zm-3.023-2.657c-.109 0-.217.031-.309.091-.089.058-.236.192-.236.442 0 .21.11.401.275.474.324.143.75.272 1.264.383.869.188 1.558.28 2.123.266 1.744-.038 3.113-.483 4.07-1.324.941-.826 1.398-1.946 1.398-3.423 0-.975-.29-1.821-.886-2.588-.6-.771-1.715-1.593-3.314-2.442-1.149-.61-1.992-1.107-2.438-1.437-.461-.343-.831-.757-1.101-1.231-.278-.492-.42-1.072-.42-1.725 0-1.077.406-1.936 1.208-2.555.757-.583 1.734-.894 2.907-.926.943-.028 1.821.085 2.581.33.189.062.392.032.543-.078.079-.057.212-.188.212-.421 0-.264-.14-.472-.341-.531-.645-.189-1.562-.268-2.729-.236-1.574.043-2.834.48-3.854 1.335-.995.835-1.479 1.909-1.479 3.285 0 .884.22 1.684.654 2.377.305.487 1.124 1.319 3.294 2.519 1.309.723 2.16 1.228 2.602 1.543.488.349.882.773 1.17 1.262.299.505.451 1.091.451 1.742 0 1.604-.724 3.531-4.17 3.612-.815.018-1.704-.137-2.644-.464-.208-.072-.406-.149-.594-.229-.078-.034-.159-.051-.24-.051z"/><path d="m517.256 467.709c-1.423.124-2.371.198-4.011.316v16.146c0 .484-.375.886-.858.919-.006 0-.011 0-.017.001-.533.037-.984-.391-.984-.925 0-6.158 0-9.55 0-16.014-1.588.104-2.527.16-3.88.228-.526.027-.973-.393-.973-.92v-.059c0-.491.388-.896.879-.92 3.741-.187 5.991-.341 9.691-.664.538-.047 1.002.378 1.002.918v.055c0 .478-.371.877-.847.918z"/><path d="m512.318 485.593c-.369 0-.716-.137-.979-.382-.288-.269-.454-.65-.454-1.045v-15.48c-1.284.083-2.158.133-3.355.194-.399.01-.773-.124-1.057-.392-.284-.271-.441-.636-.441-1.027 0-.818.595-1.441 1.354-1.479 3.733-.187 5.993-.341 9.673-.662.397-.038.79.099 1.083.368.294.269.462.65.462 1.048 0 .785-.573 1.408-1.305 1.471-1.284.112-2.184.184-3.554.283v15.681c0 .744-.582 1.367-1.324 1.418-.034.002-.068.003-.103.003zm-.432-17.974v16.547c0 .12.049.232.137.314.086.08.194.12.313.112.236-.016.409-.201.409-.421v-16.612l.464-.033c1.638-.118 2.584-.192 4.004-.315.219-.019.391-.204.391-.42 0-.174-.049-.284-.137-.365s-.198-.118-.321-.109c-3.694.322-5.963.478-9.71.665-.227.011-.403.196-.403.42 0 .174.047.282.131.362.086.082.201.124.316.118 1.351-.068 2.288-.124 3.874-.228z"/><path d="m466.57 518.037c0-5.957 0-9.608 0-15.488 0-.994.853-1.783 1.843-1.699.891.076 1.696.138 2.863.225 1.399.104 2.527.572 3.382 1.415.856.843 1.284 1.913 1.284 3.215 0 1.058-.252 1.971-.756 2.739-.504.766-1.216 1.296-2.136 1.583l.003.05c1.122.199 2.025.726 2.71 1.587.685.862 1.028 1.947 1.028 3.257 0 1.603-.513 2.881-1.54 3.824-1.026.943-2.323 1.362-3.888 1.247-1.328-.098-2.195-.166-3.239-.256-.877-.076-1.553-.817-1.553-1.698zm1.847-15.259v6.213c.817.069 1.226.102 2.043.165 1.116.086 1.986-.152 2.61-.708s.935-1.372.935-2.447c0-1.872-1.088-2.872-3.262-3.037-.931-.071-1.396-.108-2.326-.186zm0 8.13v6.922c1.091.092 1.636.135 2.728.217 1.16.087 2.068-.164 2.724-.744s.984-1.42.984-2.519c0-2.27-1.386-3.481-4.154-3.692-.913-.07-1.37-.106-2.282-.183z"/><path d="m471.86 520.51c-.176 0-.354-.006-.535-.02-1.329-.098-2.199-.166-3.245-.257-1.127-.097-2.01-1.062-2.01-2.196v-15.488c0-.615.26-1.207.714-1.624.451-.415 1.062-.625 1.671-.573.89.075 1.693.138 2.857.225 1.518.113 2.761.637 3.696 1.557.951.937 1.434 2.138 1.434 3.571 0 1.152-.282 2.166-.839 3.013-.331.504-.744.918-1.234 1.239.697.312 1.295.779 1.785 1.396.754.95 1.137 2.15 1.137 3.568 0 1.744-.572 3.154-1.702 4.192-1.01.928-2.262 1.397-3.729 1.397zm-3.592-19.166c-.299 0-.583.111-.808.317-.252.231-.391.547-.391.888v15.488c0 .62.482 1.146 1.097 1.2 1.042.09 1.908.158 3.233.256 1.428.104 2.581-.259 3.514-1.116.927-.853 1.378-1.983 1.378-3.456 0-1.203-.301-2.167-.92-2.946-.609-.767-1.396-1.227-2.406-1.406l-.386-.068-.05-.784.371-.167c.812-.254 1.423-.705 1.867-1.381.448-.681.675-1.51.675-2.464 0-1.171-.371-2.106-1.135-2.858-.772-.76-1.776-1.177-3.069-1.273-1.168-.086-1.976-.149-2.867-.226-.035-.003-.069-.004-.104-.004zm3.309 17.219c-.152 0-.309-.006-.469-.018-1.094-.082-1.641-.125-2.733-.217l-.458-.039v-7.925l.542.046c.91.077 1.367.113 2.278.183 3.815.292 4.616 2.44 4.616 4.191 0 1.245-.388 2.218-1.153 2.895-.666.588-1.547.885-2.623.885zm-2.66-1.193c.807.067 1.34.109 2.266.178 1.009.074 1.804-.133 2.355-.62.549-.484.815-1.186.815-2.145 0-1.25-.383-2.941-3.692-3.194-.715-.054-1.151-.088-1.744-.138v5.918zm1.974-7.697c-.152 0-.309-.006-.47-.019-.818-.063-1.228-.096-2.046-.165l-.458-.039v-7.217l.542.046c.928.078 1.394.115 2.322.186 3.077.233 3.724 2.052 3.724 3.536 0 1.219-.371 2.168-1.103 2.82-.635.566-1.479.852-2.512.852zm-1.974-1.142c.543.045.933.076 1.581.126.967.075 1.722-.121 2.238-.582.518-.461.769-1.139.769-2.074 0-.999-.29-2.348-2.8-2.539-.733-.056-1.179-.091-1.788-.141v5.209z"/><path d="m479.142 511.232c0-3.036.735-5.424 2.205-7.181s3.458-2.597 5.963-2.551c2.324.042 4.197.937 5.617 2.709s2.13 4.05 2.13 6.85c0 3.019-.718 5.453-2.152 7.286s-3.394 2.741-5.878 2.694c-2.375-.046-4.282-1.002-5.724-2.841-1.441-1.839-2.161-4.166-2.161-6.965zm1.949-.111c0 2.27.537 4.171 1.612 5.693 1.074 1.522 2.512 2.308 4.313 2.343 1.924.037 3.422-.654 4.494-2.054 1.071-1.4 1.607-3.308 1.607-5.717 0-2.491-.517-4.433-1.553-5.836-1.035-1.403-2.5-2.113-4.396-2.149-1.845-.035-3.319.667-4.422 2.123s-1.655 3.318-1.655 5.597z"/><path d="m487.212 521.539c-.065 0-.13 0-.195-.002-2.513-.048-4.568-1.068-6.107-3.032-1.505-1.92-2.268-4.368-2.268-7.273 0-3.136.781-5.66 2.321-7.502 1.557-1.861 3.72-2.768 6.355-2.731 2.476.045 4.494 1.02 5.998 2.896 1.486 1.855 2.24 4.265 2.24 7.163 0 3.124-.76 5.679-2.259 7.594-1.499 1.917-3.546 2.887-6.086 2.887zm-.098-19.542c-2.286 0-4.049.778-5.384 2.375-1.386 1.657-2.089 3.965-2.089 6.86 0 2.677.691 4.917 2.055 6.656 1.364 1.74 3.11 2.607 5.34 2.649 2.335.047 4.122-.773 5.475-2.501 1.357-1.735 2.046-4.083 2.046-6.978 0-2.665-.68-4.864-2.021-6.537-1.328-1.657-3.041-2.482-5.235-2.522-.062 0-.125-.002-.187-.002zm.048 17.661c-.052 0-.104 0-.156-.001-1.957-.038-3.543-.897-4.711-2.555-1.131-1.6-1.704-3.613-1.704-5.981s.591-4.361 1.757-5.899c1.195-1.577 2.8-2.347 4.83-2.321 2.056.039 3.667.83 4.789 2.352 1.095 1.485 1.65 3.548 1.65 6.133 0 2.513-.575 4.539-1.71 6.021-1.144 1.495-2.739 2.252-4.745 2.252zm-.125-15.759c-1.637 0-2.911.631-3.893 1.927-1.031 1.36-1.554 3.142-1.554 5.295s.512 3.977 1.521 5.405c.989 1.403 2.27 2.1 3.914 2.131 1.804.041 3.104-.574 4.087-1.858.999-1.304 1.505-3.125 1.505-5.414 0-2.367-.489-4.23-1.455-5.54-.941-1.276-2.251-1.913-4.004-1.945-.04 0-.081-.001-.121-.001z"/><path d="m497.628 519.35c0-.761.777-1.245 1.478-.947.178.076.366.147.565.214.89.3 1.712.436 2.467.411 2.454-.082 3.681-1.147 3.681-3.149 0-.562-.127-1.057-.381-1.484-.254-.428-.597-.794-1.029-1.098-.432-.303-1.284-.798-2.553-1.487-1.827-.992-2.989-1.884-3.475-2.656-.487-.771-.73-1.65-.73-2.635 0-1.521.552-2.746 1.656-3.684 1.104-.937 2.491-1.431 4.161-1.494 1.211-.046 2.168.027 2.872.224.432.121.71.542.71.99v.029c0 .725-.71 1.197-1.402.979-.711-.223-1.517-.317-2.42-.284-1.067.04-1.938.321-2.614.848-.675.527-1.013 1.249-1.013 2.169 0 .57.118 1.061.354 1.474.236.414.557.769.964 1.067s1.199.762 2.374 1.374c1.651.86 2.813 1.699 3.473 2.541.66.843.99 1.803.99 2.885 0 1.612-.522 2.886-1.568 3.814-1.045.928-2.508 1.432-4.388 1.493-.574.018-1.32-.065-2.239-.254-.504-.104-.926-.225-1.265-.361-.403-.162-.669-.543-.669-.978z"/><path d="m501.647 521.445c-.589 0-1.323-.09-2.186-.267-.53-.109-.984-.239-1.351-.387-.597-.24-.982-.806-.982-1.442 0-.517.256-.994.684-1.277.439-.291.998-.339 1.489-.13.167.07.343.137.529.2.828.279 1.615.408 2.291.385 2.866-.095 3.197-1.558 3.197-2.649 0-.475-.102-.877-.311-1.229-.216-.364-.515-.681-.888-.944-.402-.283-1.245-.773-2.504-1.456-1.92-1.042-3.116-1.968-3.659-2.829-.536-.848-.808-1.825-.808-2.902 0-1.665.616-3.032 1.832-4.065 1.182-1.003 2.685-1.546 4.467-1.613 1.282-.05 2.27.03 3.024.242.634.178 1.076.783 1.076 1.472 0 .52-.226.967-.618 1.255-.405.297-.939.385-1.434.229-.651-.205-1.408-.292-2.252-.262-.957.036-1.739.285-2.324.742-.553.431-.821 1.012-.821 1.775 0 .479.097.891.288 1.226.2.351.478.657.825.911.398.292 1.219.766 2.31 1.334 1.748.91 2.938 1.785 3.637 2.676.728.929 1.097 2.004 1.097 3.194 0 1.756-.584 3.165-1.735 4.188-1.137 1.01-2.72 1.555-4.705 1.618-.055.002-.111.003-.169.003zm-2.974-2.631c-.109 0-.216.031-.31.094-.088.058-.235.192-.235.442 0 .226.14.427.355.514.311.125.708.238 1.179.335.872.179 1.591.258 2.122.245 1.744-.056 3.114-.516 4.072-1.367.941-.836 1.399-1.961 1.399-3.44 0-.975-.289-1.818-.884-2.577-.601-.766-1.715-1.575-3.311-2.406-1.151-.6-1.995-1.088-2.439-1.414-.462-.337-.833-.749-1.103-1.223-.278-.486-.42-1.066-.42-1.721 0-1.076.406-1.938 1.206-2.563.755-.589 1.731-.91 2.902-.953.957-.039 1.829.068 2.589.307.191.06.39.031.542-.082.078-.058.21-.189.21-.42 0-.268-.146-.481-.346-.538-.644-.18-1.555-.247-2.718-.206-1.574.06-2.836.509-3.856 1.376-.995.846-1.479 1.926-1.479 3.303 0 .885.22 1.682.653 2.368.305.483 1.122 1.306 3.29 2.483 1.311.711 2.162 1.208 2.603 1.517.49.345.885.767 1.172 1.252.3.504.451 1.089.451 1.739 0 1.601-.723 3.534-4.164 3.648-.806.031-1.703-.119-2.643-.437-.212-.071-.411-.146-.602-.227-.078-.033-.158-.05-.237-.05z"/><path d="m510.379 518.802c0-.756.758-1.247 1.463-.976.181.07.373.134.576.193.888.26 1.709.36 2.463.302 2.449-.19 3.673-1.31 3.673-3.312 0-.562-.127-1.051-.38-1.467-.253-.417-.596-.767-1.027-1.052-.431-.284-1.281-.741-2.548-1.374-1.823-.911-2.984-1.752-3.469-2.502-.486-.75-.729-1.618-.729-2.603 0-1.521.552-2.771 1.654-3.757s2.486-1.541 4.153-1.679c1.122-.092 2.026-.073 2.711.063.502.1.863.534.863 1.045v.015c0 .718-.69 1.196-1.383 1.006-.713-.195-1.523-.255-2.43-.181-1.065.087-1.935.407-2.609.964s-1.012 1.294-1.012 2.214c0 .57.118 1.056.354 1.458.236.403.557.744.962 1.024s1.197.709 2.37 1.269c1.647.786 2.807 1.574 3.466 2.387s.988 1.76.988 2.841c0 1.612-.521 2.909-1.564 3.884-1.042.975-2.502 1.544-4.379 1.687-.573.044-1.317-.007-2.235-.155-.48-.078-.885-.174-1.215-.288-.431-.149-.716-.551-.716-1.006z"/><path d="m514.124 520.767c-.534 0-1.169-.059-1.895-.176-.501-.081-.938-.185-1.298-.309-.63-.218-1.053-.812-1.053-1.479 0-.518.243-.982.668-1.274.428-.295.979-.359 1.475-.168.168.064.348.125.537.18.821.241 1.591.335 2.283.283 2.879-.223 3.212-1.712 3.212-2.813 0-.473-.101-.868-.307-1.208-.218-.356-.504-.649-.876-.895-.405-.268-1.244-.72-2.496-1.344-1.922-.96-3.12-1.836-3.665-2.678-.537-.828-.81-1.795-.81-2.874 0-1.659.612-3.049 1.819-4.13 1.176-1.051 2.672-1.658 4.446-1.805 1.188-.097 2.12-.074 2.851.072.732.145 1.265.791 1.265 1.535 0 .5-.22.945-.603 1.237-.398.305-.91.402-1.412.267-.65-.178-1.407-.233-2.259-.165-.957.078-1.741.364-2.33.851-.559.461-.83 1.06-.83 1.829 0 .477.096.882.285 1.206.196.337.471.628.814.865.398.274 1.216.711 2.301 1.229 1.749.834 2.939 1.66 3.64 2.524.729.902 1.1 1.964 1.1 3.156 0 1.751-.58 3.18-1.723 4.249-1.13 1.057-2.705 1.669-4.683 1.821-.144.011-.296.016-.458.016zm-2.686-2.516c-.115 0-.228.034-.325.102-.088.06-.234.198-.234.45 0 .245.148.454.379.534.306.105.687.195 1.132.267.868.141 1.578.191 2.116.15 1.745-.133 3.116-.656 4.075-1.554.946-.884 1.406-2.035 1.406-3.518 0-.971-.287-1.797-.877-2.527-.596-.735-1.704-1.492-3.293-2.251-1.147-.547-1.99-1-2.438-1.308-.466-.321-.84-.719-1.11-1.184-.28-.478-.422-1.054-.422-1.71 0-1.071.401-1.946 1.193-2.6.749-.619 1.72-.981 2.886-1.077.967-.077 1.84-.012 2.604.197.193.054.392.018.542-.097.078-.06.209-.194.209-.427 0-.288-.189-.516-.46-.57-.629-.125-1.495-.144-2.573-.055-1.574.129-2.837.638-3.861 1.553-1 .896-1.486 2.003-1.486 3.385 0 .883.219 1.667.649 2.331.302.467 1.114 1.249 3.272 2.327 1.305.651 2.155 1.111 2.6 1.404.49.324.888.73 1.179 1.209.301.495.453 1.076.453 1.728 0 1.592-.717 3.545-4.134 3.81-.819.064-1.703-.045-2.643-.32-.217-.063-.42-.132-.614-.206-.074-.029-.149-.043-.225-.043z"/><path d="m260.763 465.3c6.795-8.154 12.62-13.581 19.257-18.5 15.623-11.625 60.623-8.625 86.743.5 23.88 11.875 23.88 112.875-4.51 123.77-18.659 1.54-39.654 1.222-50.49-2.77-50.679-18.671-77.318-71.419-51-103z" fill="#eab18b"/><path d="m342.063 572.446c-13.122 0-23.914-1.261-30.473-3.677-29.377-10.823-52.788-34.359-59.641-59.961-4.404-16.455-1.411-32.02 8.43-43.828 6.487-7.785 12.272-13.342 19.343-18.582 15.47-11.51 59.58-9.221 87.206.43 13.316 6.618 18.876 39.052 17.514 67.684-1.138 23.921-7.517 51.463-22.011 57.025l-.138.032c-7.137.589-13.951.878-20.23.878zm-81.3-107.146.384.32c-9.626 11.551-12.549 26.797-8.231 42.929 6.771 25.298 29.938 48.567 59.021 59.281 11.25 4.145 33.296 4.137 50.203 2.747 13.997-5.45 20.184-32.545 21.304-56.113 1.347-28.308-4.027-60.314-16.902-66.717-26.772-9.349-71.24-11.694-86.222-.547-7.005 5.19-12.737 10.699-19.172 18.419l-.384-.32z"/><path d="m342.063 572.446c-13.122 0-23.914-1.261-30.473-3.677-29.377-10.823-52.788-34.359-59.641-59.961-4.404-16.455-1.411-32.02 8.43-43.828 6.487-7.785 12.272-13.342 19.343-18.582.223-.164.536-.118.699.104.165.222.118.535-.104.7-7.004 5.19-12.736 10.698-19.171 18.419-9.626 11.551-12.549 26.797-8.231 42.929 6.771 25.298 29.938 48.567 59.021 59.281 11.25 4.145 33.296 4.137 50.203 2.747 13.997-5.45 20.184-32.545 21.304-56.113 1.347-28.308-4.027-60.314-16.902-66.717-.247-.123-.348-.423-.225-.67.123-.248.423-.349.67-.225 13.259 6.594 18.818 39.028 17.456 67.66-1.138 23.921-7.517 51.463-22.011 57.025-.044.017-.09.028-.138.032-7.137.589-13.951.877-20.23.878zm20.189-1.376h.01z"/><path d="m274.117 451.51c9.543-8.225 19.7-13.735 36.645-24.21 33.236-20.545 39-56 53-59 19.285-4.133 37 37 3 79-50.12 64.875-116.12 29.875-92.645 4.21z" fill="#eab18b"/><path d="m271.449 454.397c-.137 0-.273-.056-.373-.167-.184-.206-.166-.522.04-.706l2.668-2.387c7.54-6.499 15.584-11.386 26.718-18.15 3.062-1.86 6.375-3.873 9.998-6.112 18.71-11.566 28.486-27.588 36.343-40.462 5.883-9.64 10.529-17.255 16.815-18.602 6.406-1.378 12.868 2.099 17.281 9.286 8.995 14.648 8.518 42.964-13.788 70.518-.174.215-.488.248-.703.074s-.248-.489-.074-.703c22-27.176 22.53-55.007 13.714-69.365-4.183-6.81-10.24-10.109-16.221-8.832-5.865 1.257-10.413 8.709-16.171 18.145-7.494 12.281-17.758 29.101-36.671 40.792-3.625 2.241-6.939 4.255-10.004 6.116-11.093 6.739-19.107 11.608-26.578 18.047l-2.661 2.38c-.095.085-.214.127-.333.127z"/><path d="m366.763 447.3c19 1 33-2 43-6 18 3 25 35-8 48-8.12 2.875-25.12 1.875-37.12.875-36-3-30-46 2.12-42.875z" fill="#eab18b"/><path d="m387.547 491.666c-.271 0-.494-.217-.5-.49-.006-.276.214-.504.49-.51 6.245-.127 10.976-.745 14.059-1.837 18.279-7.202 23.698-20.203 22.668-29.968-.934-8.859-6.731-15.69-14.446-17.044-12.154 4.834-26.646 6.846-43.081 5.983-.081 0-10.205-.135-16.724-1.004-.273-.037-.466-.288-.43-.562.037-.274.295-.465.562-.43 6.458.861 16.522.995 16.623.996 16.37.861 30.763-1.146 42.809-5.964.085-.034.176-.043.268-.029 8.232 1.372 14.427 8.585 15.414 17.949 1.068 10.13-4.495 23.596-23.312 31.009-3.201 1.134-8.037 1.771-14.39 1.9h-.01z"/><path d="m353.643 488.175c10 1 35 6 48.12 1.125 14 7 20 31-1 41-10.12 2.875-28.12 2.875-50.12-1.125-28-5-25.925-43.892 3-41z" fill="#eab18b"/><path d="m387.652 532.702c-.265 0-.486-.208-.499-.475-.015-.275.198-.51.474-.524 5.137-.258 9.51-.892 12.999-1.883 8.486-4.049 13.247-10.887 13.327-19.225.081-8.504-4.935-17.002-12.223-20.75-10.764 3.881-28.935 1.39-40.982-.262-2.82-.386-5.257-.72-7.155-.91-.274-.027-.476-.272-.447-.547.027-.274.281-.47.547-.448 1.917.192 4.361.527 7.191.915 12.029 1.649 30.206 4.141 40.705.239.13-.048.274-.04.397.021 7.721 3.86 13.053 12.805 12.967 21.751-.084 8.741-5.048 15.896-13.976 20.148-3.64 1.041-8.089 1.688-13.3 1.95-.009 0-.018 0-.025 0z"/><path d="m346.643 528.175c14 2 39 7 54.12 2.125 8.338 3.207 19.555 24.513-5.658 34.898-9.108 3.751-33.3 6.872-54.408 6.724-35.053-.746-34.75-49.56 5.947-43.746z" fill="#eab18b"/><path d="m342.129 572.426c-.481 0-.958-.001-1.437-.005l-6.989-.178c-.276-.007-.494-.237-.487-.513s.265-.49.513-.487l6.98.178c20.573.144 44.904-2.855 54.205-6.687 12.665-5.216 15.247-12.769 15.184-18.186-.083-7.09-4.962-13.911-9.354-15.718-13.21 4.175-33.308 1.056-48-1.226-2.222-.345-4.296-.667-6.172-.935-.273-.039-.464-.292-.425-.566.04-.273.298-.462.565-.424 1.88.269 3.958.591 6.185.937 14.657 2.275 34.732 5.392 47.712 1.207.108-.035.227-.031.333.009 4.831 1.858 10.064 9.014 10.155 16.704.067 5.727-2.619 13.692-15.803 19.123-9.187 3.784-32.779 6.767-53.166 6.767z"/><path d="m53.56 642.72c81.432 35.126 227.203-40.42 227.203-40.42l-68-128s-93.876 45.926-150.203 28.058c-40.182-3.587-62.297 34.442-61.819 65.229.893 29.016 17.371 59.969 52.82 75.133z" fill="#fff"/><path d="m104.972 652.457c-18.414 0-36.177-2.621-51.61-9.278-43.02-18.556-57.335-58.693-52.438-90.239.042-.274.299-.458.571-.417.272.042.459.298.417.571-4.837 31.165 9.318 70.823 51.847 89.167 41.925 18.083 101.335 6.145 143.792-7.056 43.287-13.459 78.201-30.917 82.533-33.119l-67.537-127.127c-7.038 3.355-96.228 44.975-150.138 27.876-.263-.083-.409-.365-.325-.628.083-.263.361-.409.628-.325 55.483 17.601 148.895-27.572 149.832-28.031.24-.118.535-.024.661.215l68 128c.062.118.075.256.036.383-.04.127-.129.233-.247.295-.365.189-37.016 19.073-83.146 33.416-27.034 8.406-60.931 16.297-92.875 16.298z"/><path d="m275.924 440.86c-8.029.948-16.194 32.421-1.704 72.296 12.929 35.579 42.702 68.859 66.995 62.066-5.428 13.731-53.163 37.325-67.681 33.072-47.772-13.994-77.556-109.714-65.659-138.256 7.062-16.945 58.525-33.089 68.049-29.178z" fill="#fff"/><path d="m277.687 609.299c-1.628 0-3.073-.168-4.293-.525-25.644-7.512-42.971-36.903-51.016-53.754-15.109-31.644-21.683-69.057-14.965-85.175 7.158-17.174 58.946-33.456 68.7-29.448.211.086.337.305.306.53-.03.226-.21.402-.437.429-1.365.161-2.774 1.362-4.076 3.474-5.347 8.675-9.319 34.849 2.783 68.155 11.68 32.137 37.469 62.614 60.026 62.616 2.157 0 4.282-.278 6.365-.86.187-.051.381.006.506.146.128.141.164.342.094.519-5.188 13.125-45.902 33.894-63.994 33.894zm-5.863-168.524c-6.673 0-18.768 2.807-30.671 7.32-17.545 6.654-29.813 14.928-32.816 22.135-6.622 15.887-.058 52.941 14.943 84.359 7.974 16.701 25.124 45.822 50.395 53.225 13.745 4.029 59.582-18.135 66.652-31.849-11.211 2.605-24.379-2.877-37.222-15.531-12.114-11.936-22.813-29.105-29.355-47.107-12.224-33.638-8.141-60.188-2.695-69.022.985-1.598 2.059-2.737 3.165-3.374-.69-.105-1.494-.157-2.396-.157z"/><ellipse cx="285.805" cy="585.037" fill="#3a3838" rx="9.324" ry="8.088" transform="matrix(.99310533 -.11722541 .11722541 .99310533 -66.609 37.536)"/><path d="m285.477 593.645c-2.12 0-4.152-.601-5.83-1.742-2.05-1.394-3.328-3.423-3.598-5.714-.556-4.703 3.37-9.045 8.75-9.681 2.592-.305 5.137.285 7.165 1.663 2.05 1.394 3.328 3.423 3.598 5.714.556 4.703-3.37 9.045-8.75 9.681-.447.053-.893.079-1.335.079zm.657-16.216c-.403 0-.81.024-1.218.072-4.832.571-8.365 4.416-7.875 8.57.236 2 1.361 3.777 3.167 5.005 1.829 1.243 4.132 1.774 6.486 1.497 4.832-.571 8.365-4.416 7.875-8.57-.236-2-1.361-3.777-3.167-5.005-1.512-1.027-3.348-1.569-5.269-1.569z"/><path d="m392.763 30.3c65 13 93.876 68.829 90.715 121.545-3.692 61.575-99.588-70.904-99.588-70.904l-5.834-41.267z" fill="#3a3838"/><path d="m472.84 168.663c-25.761 0-86.677-83.73-89.354-87.429-.048-.066-.078-.143-.09-.223l-5.835-41.267c-.027-.194.062-.386.227-.492l14.707-9.374c.109-.069.242-.092.366-.068 30.368 6.073 55 22.011 71.234 46.089 14.472 21.464 21.533 48.446 19.882 75.976-.566 9.443-3.368 14.964-8.329 16.408-.88.256-1.818.38-2.808.38zm-88.472-87.915c2.573 3.534 68.211 93.214 91 86.575 4.512-1.313 7.072-6.531 7.61-15.508 3.034-50.593-23.657-107.592-90.117-120.985l-14.266 9.093 5.772 40.825z"/><path d="m461.807 158.493c5.445-8.908 20.66-18.78 37.969-10.694 20.259 9.464 17.352 53.125-22.898 47.746-23.974-3.204-23.814-22.749-15.071-37.052z" fill="#eab18b"/><path d="m483.406 196.495c-2.114 0-4.315-.15-6.595-.455-9.473-1.266-16.063-5.259-19.06-11.546-3.408-7.152-2.052-16.97 3.628-26.262 5.316-8.698 20.5-19.345 38.607-10.886 10.018 4.68 15.041 17.984 11.437 30.289-3.539 12.082-13.804 18.86-28.018 18.86zm-21.173-37.741c-5.503 9.002-6.841 18.464-3.578 25.311 2.843 5.968 9.167 9.766 18.289 10.985 17.074 2.282 29.605-4.333 33.52-17.696 3.469-11.843-1.318-24.625-10.9-29.102-16.581-7.748-31.813 1.477-37.33 10.501z"/><path d="m485.104 177.479c-.178 0-.351-.096-.441-.265-.023-.045-2.444-4.491-6.588-5.214-2.57-.448-5.294.61-8.1 3.143-.178.161-.445.173-.636.028s-.254-.404-.148-.62c7.206-14.692 22.913-11.189 23.069-11.152.269.063.436.332.372.601-.062.268-.328.436-.601.373-.58-.135-13.537-3.004-20.743 8.46 2.37-1.604 4.702-2.215 6.964-1.817 4.627.811 7.187 5.527 7.293 5.728.13.244.037.546-.206.676-.075.04-.155.059-.235.059z"/><ellipse cx="347.845" cy="181.845" fill="#eab18b" rx="125.542" ry="133.73" transform="matrix(.37798622 -.92581122 .92581122 .37798622 48.009 435.148)"/><path d="m353.519 309.088c-17.674 0-35.771-3.388-53.316-10.551-68.522-27.977-102.898-103.085-76.628-167.429 12.729-31.175 37.624-55.203 70.102-67.658 32.466-12.451 68.623-11.845 101.812 1.705 33.188 13.55 59.438 38.424 73.912 70.041 14.479 31.627 15.444 66.213 2.716 97.388-19.544 47.869-67.243 76.505-118.598 76.505zm-11.506-253.556c-16.352 0-32.581 2.946-47.979 8.851-32.217 12.355-56.91 36.186-69.533 67.103-26.062 63.833 8.067 138.357 76.081 166.125 17.414 7.11 35.399 10.476 52.94 10.478 50.968.004 98.28-28.394 117.669-75.883 12.623-30.917 11.664-65.221-2.699-96.594-14.368-31.384-40.429-56.077-73.382-69.531-17.208-7.026-35.225-10.548-53.097-10.548z"/><circle cx="303.522" cy="180.723" fill="#fff" r="31.5"/><path d="m303.481 212.723c-4.021 0-8.107-.763-12.056-2.375-7.913-3.231-14.095-9.35-17.405-17.23-3.312-7.88-3.355-16.578-.124-24.491 3.23-7.914 9.35-14.095 17.229-17.406 7.882-3.311 16.579-3.354 24.492-.124 16.335 6.669 24.199 25.385 17.53 41.722-5.059 12.389-17.045 19.904-29.667 19.904zm.039-63.017c-4.071 0-8.14.812-12.006 2.437-7.634 3.208-13.562 9.196-16.691 16.862s-3.088 16.092.12 23.726c3.207 7.634 9.195 13.562 16.862 16.691 15.82 6.459 33.954-1.159 40.418-16.982 6.461-15.826-1.158-33.957-16.983-40.418-3.783-1.545-7.753-2.317-11.72-2.317z"/><circle cx="299.654" cy="179.002" fill="#3a3838" r="14"/><path d="m299.655 193.51c-1.856 0-3.712-.361-5.482-1.083-7.401-3.022-10.965-11.503-7.942-18.905 1.464-3.585 4.236-6.387 7.807-7.887 3.57-1.5 7.511-1.521 11.099-.056 3.585 1.464 6.386 4.236 7.887 7.807 1.5 3.571 1.52 7.512.056 11.098-1.464 3.585-4.236 6.387-7.807 7.887-1.809.76-3.713 1.14-5.616 1.14zm-.002-28.015c-1.772 0-3.545.354-5.229 1.061-3.324 1.397-5.906 4.005-7.269 7.343-2.813 6.892.504 14.788 7.396 17.602 3.338 1.363 7.008 1.345 10.332-.053 3.324-1.396 5.906-4.004 7.269-7.343 1.363-3.339 1.345-7.008-.052-10.333s-4.005-5.906-7.344-7.269c-1.647-.673-3.376-1.009-5.104-1.009z"/><path d="m334.536 175.185c-25.774-10.885-50.774.115-61.413 13.801l-.009-.004c-1.755-6.441-1.477-13.5 1.245-20.166 6.577-16.109 24.961-23.833 41.07-17.256 10.369 4.233 17.272 13.36 19.107 23.625z" fill="#eab18b"/><path d="m273.123 189.486c-.068 0-.138-.014-.203-.043-.137-.061-.249-.185-.288-.33-1.859-6.822-1.422-13.906 1.265-20.486 3.231-7.915 9.351-14.097 17.229-17.408 7.878-3.31 16.577-3.354 24.492-.123 10.212 4.169 17.468 13.141 19.41 24 .032.18-.037.364-.18.479-.145.115-.339.141-.507.07-24.556-10.371-49.664-.708-60.824 13.647-.097.125-.244.193-.395.193zm30.394-39.78c-4.07 0-8.138.812-12.004 2.436-7.632 3.207-13.56 9.196-16.69 16.864-2.479 6.069-2.981 12.58-1.47 18.893 11.543-14.049 36.229-23.332 60.516-13.529-2.113-10.112-9.021-18.423-18.629-22.346-3.784-1.545-7.755-2.317-11.723-2.317z"/><circle cx="413.932" cy="164.353" fill="#fff" r="31.5"/><path d="m413.892 196.354c-4.022 0-8.107-.763-12.056-2.375-16.335-6.67-24.199-25.387-17.529-41.722 6.67-16.337 25.389-24.199 41.722-17.53 16.335 6.669 24.199 25.385 17.53 41.722-5.059 12.388-17.045 19.905-29.667 19.905zm.038-63.017c-4.071 0-8.14.812-12.006 2.437-7.634 3.208-13.562 9.196-16.691 16.862-6.461 15.825 1.156 33.956 16.982 40.418 15.818 6.461 33.955-1.159 40.418-16.982 6.461-15.826-1.158-33.957-16.983-40.418-3.783-1.545-7.753-2.317-11.72-2.317z"/><circle cx="410.065" cy="162.632" fill="#3a3838" r="14"/><path d="m410.046 177.133c-1.822 0-3.674-.346-5.463-1.076-7.401-3.022-10.965-11.503-7.942-18.905 3.022-7.403 11.504-10.963 18.905-7.943 7.401 3.022 10.965 11.503 7.943 18.905-2.292 5.613-7.724 9.02-13.443 9.02zm.036-28.001c-5.325 0-10.382 3.17-12.516 8.397-2.813 6.892.504 14.788 7.396 17.602 6.891 2.814 14.786-.504 17.602-7.396 2.812-6.892-.505-14.788-7.396-17.602-1.664-.68-3.389-1.001-5.085-1.001zm12.944 18.792h.01z"/><path d="m444.947 158.816c-25.774-10.885-50.774.115-61.413 13.801l-.009-.004c-1.755-6.441-1.477-13.5 1.245-20.166 6.577-16.109 24.961-23.833 41.07-17.256 10.369 4.233 17.272 13.36 19.107 23.625z" fill="#eab18b"/><path d="m383.534 173.116c-.062 0-.125-.012-.186-.036-.146-.059-.266-.186-.307-.337-1.859-6.823-1.422-13.907 1.265-20.486 3.231-7.915 9.351-14.097 17.229-17.408 7.881-3.311 16.578-3.354 24.492-.123 10.212 4.169 17.468 13.141 19.41 24 .032.18-.037.364-.18.479-.144.115-.338.141-.507.07-24.553-10.369-49.664-.709-60.823 13.647-.097.125-.243.193-.395.193zm30.393-39.78c-4.07 0-8.138.812-12.003 2.436-7.633 3.208-13.561 9.196-16.691 16.864-2.478 6.068-2.98 12.579-1.469 18.893 11.542-14.049 36.229-23.332 60.515-13.53-2.113-10.112-9.021-18.423-18.629-22.346-3.784-1.545-7.755-2.317-11.723-2.317z"/><path d="m370.046 160.322c45.723 42.772 35.809 58.606-2.612 54.509" fill="#eab18b"/><path d="m378.06 215.947c-3.238 0-6.801-.206-10.679-.619-.274-.029-.474-.275-.444-.55s.29-.471.55-.444c17.719 1.89 28.655-.551 31.631-7.055 3.999-8.739-6.172-24.85-29.413-46.591-.201-.189-.212-.505-.023-.707.189-.2.505-.212.707-.023 23.922 22.378 33.895 38.44 29.64 47.738-2.496 5.455-10.019 8.251-21.968 8.252z"/><path d="m269.206 144.087c5.94.392 21.413-16.377 49.089-20.626 5.94.392.075-14.496-8.25-19.636-8.168-5.042-41.014 15.789-47.026 25.535-1.977 3.204.248 14.335 6.188 14.727z" fill="#3a3838"/><path d="m269.419 144.594c-.083 0-.165-.002-.246-.008-2.239-.148-4.164-1.663-5.566-4.382-1.907-3.699-2.381-8.889-1.014-11.106 2.943-4.771 12.352-12.371 22.879-18.482 5.66-3.285 19.405-10.565 24.836-7.215 6.734 4.157 12.043 14.573 10.7 18.77-.392 1.228-1.349 1.859-2.689 1.793-17.587 2.711-30.233 10.518-38.605 15.686-4.788 2.956-8.01 4.944-10.294 4.944zm37.316-41.03c-4.481 0-11.963 2.809-20.762 7.917-10.399 6.037-19.664 13.497-22.529 18.143-1.05 1.702-.819 6.495 1.051 10.123.86 1.667 2.381 3.687 4.744 3.842 1.99.127 5.322-1.933 9.948-4.789 8.449-5.215 21.217-13.097 39.031-15.832.036-.005.069-.007.109-.005.913.058 1.469-.288 1.728-1.096 1.079-3.375-3.686-13.548-10.273-17.615-.749-.462-1.778-.688-3.047-.688z"/><path d="m438.812 123.849c-4.77 2.353-23.273-6.205-47.572-.259-4.77 2.353-5.014-11.942.103-19.029 5.021-6.953 39.254-.976 47.546 5.016 2.727 1.97 4.693 11.919-.078 14.272z" fill="#3a3838"/><path d="m436.356 124.772c-1.913 0-4.477-.416-7.742-.945-8.67-1.405-21.77-3.529-37.205.236-1.108.523-2.132.321-2.891-.577-2.553-3.019-1.732-13.468 2.419-19.217 3.354-4.644 17.215-3.329 23.019-2.549 10.787 1.45 21.16 4.515 25.227 7.453 1.899 1.372 3.291 5.84 2.979 9.561-.23 2.744-1.312 4.668-3.129 5.564-.681.336-1.569.475-2.676.475zm-26.991-3.828c7.713 0 14.316 1.071 19.409 1.896 4.785.776 8.241 1.335 9.816.56 1.875-.925 2.435-3.094 2.574-4.751.304-3.617-1.132-7.629-2.568-8.667-3.884-2.806-14.303-5.864-24.773-7.272-11.542-1.551-20-.729-22.075 2.144-4.037 5.591-4.5 15.58-2.466 17.986.473.558 1.023.652 1.735.301.033-.016.067-.029.103-.038 6.555-1.604 12.688-2.16 18.245-2.16z"/><path d="m334.855 236.826c4.672 10.157 10.908 15.474 21.851 12.391" fill="#eab18b"/><path d="m350.885 250.6c-7.036 0-12.253-4.365-16.484-13.564-.115-.251-.006-.548.245-.663.248-.114.549-.006.663.245 5.17 11.237 11.525 14.863 21.262 12.119.272-.072.542.081.617.346.074.266-.08.542-.346.617-2.122.598-4.103.901-5.957.901z"/><path d="m188.21 179.576c-18.697 19.874 3.962 53.458 36.08 43.589 13.586-4.174 17.055-21.102 9.689-33.653-10.988-18.723-34.549-21.862-45.77-9.935z" fill="#eab18b"/><path d="m204.718 208.113c-.024 0-.048-.002-.072-.005-.273-.04-.463-.292-.424-.566.032-.225.837-5.529 4.912-7.864 1.992-1.141 4.394-1.358 7.168-.657-10.674-8.334-21.886-1.233-22.385-.909-.234.151-.543.084-.691-.146-.15-.231-.085-.541.146-.691.136-.088 13.715-8.722 25.487 2.65.172.167.202.432.071.632-.131.202-.387.279-.608.19-3.5-1.429-6.422-1.498-8.685-.204-3.651 2.087-4.418 7.092-4.425 7.142-.036.249-.25.429-.494.429z"/><path d="m212.954 225.429c-12.663 0-22.67-6.749-27.769-14.936-6.472-10.392-5.428-22.662 2.66-31.259 8.753-9.303 24.514-9.708 36.662-.94.224.162.274.474.112.698-.162.225-.475.273-.698.113-11.74-8.474-26.938-8.125-35.348.815-7.768 8.256-8.765 20.05-2.54 30.045 6.357 10.208 20.605 18.1 38.109 12.723.216-.066.429-.136.639-.208 0-.002 1.942-.879 4.529-1.966.252-.106.548.012.654.267.107.255-.013.548-.268.655-2.599 1.092-4.544 1.971-4.546 1.972-.264.094-.488.167-.716.237-4.01 1.232-7.855 1.786-11.482 1.786z"/><path d="m234.493 242.885c-5.686-9.883-7.464-13.201-9.82-19.819 0 0-4.789 2.177-13.828 1.955 9.482 18.434 22.249 28.899 23.648 17.864z" fill="#3a3838"/><path d="m230.95 247.893c-5.122 0-13.771-9.464-20.55-22.644-.081-.157-.073-.345.021-.494s.22-.245.437-.234c8.78.224 13.562-1.889 13.609-1.91.127-.057.271-.06.401-.004.129.055.229.161.275.292 2.305 6.473 4.019 9.72 9.783 19.737.054.095.076.204.062.312-.46 3.629-2.094 4.662-3.382 4.889-.212.038-.432.056-.657.056zm-19.275-22.358c7.466 14.228 15.855 22.006 19.759 21.318 1.361-.24 2.216-1.54 2.542-3.866-5.587-9.711-7.363-13.065-9.598-19.263-1.404.525-5.69 1.867-12.703 1.811z"/><path d="m255.763 106.3c40-26 124 0 140.254-54.52 5.462-18.322 4.361-43.134-15.254-49.48-34-11-123 31-154.326 56.1-43.708 35.02-41.732 78.727-31.674 115.9 0 0 20.678-6.86 28.827 11.405 5.173 11.595 5.861 16.884 6.786 17.262s12.83-2.323 13.208-3.249-5.352-20.24-8.821-31.419c-9-29 7.704-53.357 21-62z" fill="#3a3838"/><path d="m230.694 203.493c-.226 0-.4-.019-.508-.063-.615-.251-.921-1.185-1.74-3.681-.896-2.729-2.394-7.296-5.313-13.841-7.865-17.634-27.385-11.408-28.213-11.134-.13.043-.273.03-.394-.034-.121-.065-.21-.177-.246-.31-8.678-32.072-14.817-79.034 31.844-116.421 31.51-25.247 120.553-67.264 154.793-56.185 19.122 6.187 21.479 30.306 15.579 50.099-9.971 33.443-45.575 36.918-80.007 40.279-22.053 2.153-44.856 4.378-60.454 14.517-12.824 8.335-29.81 32.384-20.795 61.433.384 1.237 9.395 30.315 8.807 31.756-.101.246-.367.899-6.746 2.411-1.271.301-5.092 1.175-6.606 1.175zm-27.206-30.916c6.804 0 15.805 2.269 20.559 12.924 2.94 6.592 4.448 11.189 5.35 13.936.51 1.553.949 2.894 1.193 3.081.936.194 11.257-2.099 12.513-3.013-.067-1.802-4.551-17.307-8.817-31.057-9.179-29.574 8.136-54.072 21.205-62.567l.272.419-.272-.419c15.802-10.271 38.729-12.509 60.901-14.673 34.104-3.329 69.367-6.771 79.146-39.57 5.767-19.341 3.555-42.881-14.929-48.861-33.944-10.982-122.489 30.879-153.859 56.014-45.966 36.83-40.17 83.099-31.637 114.887 1.202-.332 4.418-1.1 8.376-1.1z"/></svg>